<?xml version="1.0" encoding="utf-8"?>
<!-- Generator: Adobe Illustrator 26.3.1, SVG Export Plug-In . SVG Version: 6.00 Build 0)  -->
<svg version="1.1" id="Layer_1" xmlns="http://www.w3.org/2000/svg" xmlns:xlink="http://www.w3.org/1999/xlink" x="0px"
	y="0px" viewBox="0 0 152.5 231.1" style="enable-background:new 0 0 152.5 231.1;" xml:space="preserve">
	<style type="text/css">
		.st0 {
			fill: none;
		}

		.st1 {
			fill: url(#SVGID_1_);
			stroke: #18F8D7;
			stroke-width: 0.4947;
			stroke-miterlimit: 10;
		}

		.st2 {
			fill: url(#SVGID_00000147209540649218992710000010034738262234969759_);
			stroke: #18F8D7;
			stroke-width: 0.4947;
			stroke-miterlimit: 10;
		}

		.st3 {
			fill: url(#SVGID_00000163055568699503305460000007749323782613092274_);
			stroke: #18F8D7;
			stroke-width: 0.2149;
			stroke-miterlimit: 10;
		}

		.st4 {
			fill: url(#SVGID_00000003819149771021010440000013586424057100886449_);
			stroke: #18F8D7;
			stroke-width: 0.2149;
			stroke-miterlimit: 10;
		}

		.st5 {
			opacity: 0.25;
			fill: url(#SVGID_00000091735738405750963070000009697143105775015331_);
			enable-background: new;
		}

		.st6 {
			fill: none;
			stroke: #C9FC6E;
			stroke-width: 0.5;
			stroke-miterlimit: 10;
		}

		.st7 {
			fill: none;
			stroke: #C9FC6E;
			stroke-miterlimit: 10;
		}

		.st8 {
			fill: none;
			stroke: #18F8D7;
			stroke-width: 0.4947;
			stroke-miterlimit: 10;
		}

		.st9 {
			fill: #77F8DC;
		}

		.st10 {
			fill: #0842E8;
			stroke: #0842E8;
			stroke-width: 0.25;
			stroke-linecap: round;
			stroke-linejoin: round;
			stroke-miterlimit: 10;
		}

		.st11 {
			fill: #0945F5;
			stroke: #0842E8;
			stroke-width: 0.25;
			stroke-linecap: round;
			stroke-linejoin: round;
			stroke-miterlimit: 10;
		}

		.st12 {
			fill: #083CD3;
		}

		.st13 {
			fill: #083FDF;
			stroke: #0842E8;
			stroke-width: 0.25;
			stroke-linecap: round;
			stroke-linejoin: round;
			stroke-miterlimit: 10;
		}

		.st14 {
			fill: url(#SVGID_00000112607828361572161190000004465468301334395049_);
			stroke: #C3D62B;
			stroke-width: 0.25;
			stroke-linecap: round;
			stroke-linejoin: round;
			stroke-miterlimit: 10;
		}

		.st15 {
			fill: #D4ED09;
			stroke: #C3D62B;
			stroke-width: 0.25;
			stroke-linecap: round;
			stroke-linejoin: round;
			stroke-miterlimit: 10;
		}

		.st16 {
			fill: #C3D62B;
			stroke: #C3D62B;
			stroke-width: 0.25;
			stroke-miterlimit: 10;
		}

		.st17 {
			fill: #C3D62B;
			stroke: #C3D62B;
			stroke-width: 0.25;
			stroke-linecap: round;
			stroke-linejoin: round;
			stroke-miterlimit: 10;
		}

		.st18 {
			fill: url(#SVGID_00000036958868337220263460000018396454571819266968_);
		}

		.st19 {
			fill: none;
			stroke: #C3D62B;
			stroke-width: 0.25;
			stroke-linecap: round;
			stroke-linejoin: round;
			stroke-miterlimit: 10;
		}

		.st20 {
			enable-background: new;
		}

		.st21 {
			clip-path: url(#SVGID_00000020397409678407933340000017609665284162748576_);
			enable-background: new;
		}

		.st22 {
			fill: #083BD2;
		}

		.st23 {
			fill: #D4ED09;
		}
	</style>
	<g id="d-appswrapper">
		<g id="d-app">
			<g>

				<lineargradient gradientTransform="matrix(1 0 0 -1 0 1900)" gradientUnits="userSpaceOnUse" id="SVGID_7_"
					x1="596.2948" x2="531.7549" y1="1492.3506" y2="1455.0885">
					<stop offset="0" style="stop-color:#808080"></stop>
					<stop offset="0.2627" style="stop-color:#6F6F6F"></stop>
					<stop offset="0.7192" style="stop-color:#575757"></stop>
					<stop offset="1" style="stop-color:#4E4E4E"></stop>
				</lineargradient>
				<path class="st0" d="M132.6,180.5c-0.1-0.8-3.3,0.2-3.3,0.2v1.3l0.1-0.1l-48.9-28c0,0-4.5-3.1-10.6,0.6l-48.8,28
				c0,0-0.7,0.1-0.7,0.3v-1.2c0,0-2.7-1-2.8-0.2c-0.4,2.3-0.1,1.9,0,3.5c0,1.1,0.8,2.3,3.1,3.5l47.5,27.5c0,0,7.1,3.9,14.6,0
				l47.5-28.3c0,0,2.3-1.4,2.5-3.4C133.1,182.6,133,182.7,132.6,180.5z" />

				<lineargradient gradientTransform="matrix(1 0 0 -1 0 1900)" gradientUnits="userSpaceOnUse" id="SVGID_8_"
					x1="536.1459" x2="577.0236" y1="1498.0173" y2="1439.6381">
					<stop offset="0" style="stop-color:#9A9A9A"></stop>
					<stop offset="0.3122" style="stop-color:#9F9F9F"></stop>
					<stop offset="0.7197" style="stop-color:#B0B0B0"></stop>
					<stop offset="1" style="stop-color:#BFBFBF"></stop>
				</lineargradient>
				<path class="st0" d="M20.7,185.4l47.4,27.5c0,0,7.1,3.9,14.6,0l47.6-28.3c0,0,6.3-3.6-0.8-7.4l-49-28c0,0-4.6-3.1-10.7,0.6
				l-48.5,28C21.3,177.8,13.5,181.6,20.7,185.4z" />

				<linearGradient id="SVGID_1_" gradientUnits="userSpaceOnUse" x1="-1340.712" y1="101.2695"
					x2="-1280.7891" y2="65.7951" gradientTransform="matrix(-1 0 0 -1 -1233.6456 265.8207)">
					<stop offset="0" style="stop-color:#12E3DB" />
					<stop offset="0.5188" style="stop-color:#1490ED" />
					<stop offset="1" style="stop-color:#0946F8" />
				</linearGradient>
				<path class="st1" d="M17.4,179.4l16.8-10l37.5-21.6c2.3-1.3,5.1-1.3,7.3,0l37.5,21.6l16.7,10.3v3.3l0,0c0.1,2.6-1.1,5.2-3.7,6.6
				l-47,27c-4.5,2.6-10,2.6-14.5,0l-47-27c-2.5-1.5-3.8-4.1-3.7-6.6l0,0v-3.6H17.4z" />

				<linearGradient id="SVGID_00000111891120260043834730000005645120605537117081_"
					gradientUnits="userSpaceOnUse" x1="-1308.9956" y1="121.4351" x2="-1308.9956" y2="52.4401"
					gradientTransform="matrix(-1 0 0 -1 -1233.6456 265.8207)">
					<stop offset="0" style="stop-color:#0946F8" />
					<stop offset="0.4812" style="stop-color:#1490ED" />
					<stop offset="1" style="stop-color:#12E3DB" />
				</linearGradient>

				<path
					style="fill:url(#SVGID_00000111891120260043834730000005645120605537117081_);stroke:#18F8D7;stroke-width:0.4947;stroke-miterlimit:10;"
					d="
				M82.6,212.7l47-27c4.9-2.8,4.9-9.8,0-12.7l-47-27c-4.5-2.6-10-2.6-14.5,0l-47,27c-4.9,2.8-4.9,9.8,0,12.7l47,27
				C72.6,215.3,78.1,215.3,82.6,212.7z" />
			</g>
			<g>

				<lineargradient gradientTransform="matrix(1 0 0 -1 0 1900)" gradientUnits="userSpaceOnUse" id="SVGID_9_"
					x1="596.3016" x2="524.3275" y1="1506.1545" y2="1464.6003">
					<stop offset="0" style="stop-color:#A61D30"></stop>
					<stop offset="0.2302" style="stop-color:#AA2033"></stop>
					<stop offset="0.4367" style="stop-color:#B4293A"></stop>
					<stop offset="0.634" style="stop-color:#C73848"></stop>
					<stop offset="0.8245" style="stop-color:#E04D5A"></stop>
					<stop offset="1" style="stop-color:#FF6670"></stop>
				</lineargradient>
				<path class="st0" d="M132.6,166.7c-0.1-0.8-3.3,0.2-3.3,0.2v1.3l0.1-0.1l-48.9-28c0,0-4.5-3.1-10.6,0.6l-48.8,28
				c0,0-0.7,0.1-0.7,0.3v-1.2c0,0-2.7-1-2.8-0.2c-0.4,2.3-0.1,1.9,0,3.5c0,1.1,0.8,2.3,3.1,3.5l47.5,27.5c0,0,7.1,3.9,14.6,0
				l47.6-28.3c0,0,2.3-1.4,2.5-3.4C133.1,168.8,133,168.9,132.6,166.7z" />

				<lineargradient gradientTransform="matrix(1 0 0 -1 0 1900)" gradientUnits="userSpaceOnUse"
					id="SVGID_10_" x1="536.1385" x2="577.0161" y1="1511.8278" y2="1453.4487">
					<stop offset="0" style="stop-color:#E6455C"></stop>
					<stop offset="1" style="stop-color:#FF3D49"></stop>
				</lineargradient>
				<path class="st0" d="M20.7,171.6l47.4,27.5c0,0,7.1,3.9,14.6,0l47.6-28.3c0,0,6.3-3.6-0.8-7.4l-49-28c0,0-4.6-3.1-10.7,0.6
				l-48.5,28C21.3,164,13.5,167.8,20.7,171.6z" />

				<linearGradient id="SVGID_00000051356363704617482600000001534445129248854149_"
					gradientUnits="userSpaceOnUse" x1="-1336.5322" y1="111.788" x2="-1284.4686" y2="80.9663"
					gradientTransform="matrix(-1 0 0 -1 -1233.6456 265.8207)">
					<stop offset="0" style="stop-color:#F0FE3B" />
					<stop offset="0.2341" style="stop-color:#C9FC6E" />
					<stop offset="0.4815" style="stop-color:#A6FA9D" />
					<stop offset="0.7007" style="stop-color:#8CF9BF" />
					<stop offset="0.881" style="stop-color:#7CF8D4" />
					<stop offset="1" style="stop-color:#77F8DC" />
				</linearGradient>

				<path
					style="fill:url(#SVGID_00000051356363704617482600000001534445129248854149_);stroke:#18F8D7;stroke-width:0.2149;stroke-miterlimit:10;"
					d="
				M25,166.9l14.6-8.7l32.6-18.7c2-1.1,4.4-1.1,6.4,0l32.6,18.7l14.6,8.9v2.9l0,0c0.1,2.2-1,4.5-3.2,5.7l-40.9,23.5
				c-3.9,2.2-8.7,2.2-12.6,0l-40.9-23.5c-2.2-1.3-3.3-3.5-3.2-5.7l0,0C25,170,25,166.9,25,166.9z" />

				<linearGradient id="SVGID_00000083073133549258417820000009899537427778055824_"
					gradientUnits="userSpaceOnUse" x1="-1308.9456" y1="129.2756" x2="-1308.9456" y2="69.3298"
					gradientTransform="matrix(-1 0 0 -1 -1233.6456 265.8207)">
					<stop offset="0" style="stop-color:#77F8DC" />
					<stop offset="0.119" style="stop-color:#7CF8D4" />
					<stop offset="0.2993" style="stop-color:#8CF9BF" />
					<stop offset="0.5185" style="stop-color:#A6FA9D" />
					<stop offset="0.7659" style="stop-color:#C9FC6E" />
					<stop offset="1" style="stop-color:#F0FE3B" />
				</linearGradient>

				<path
					style="fill:url(#SVGID_00000083073133549258417820000009899537427778055824_);stroke:#18F8D7;stroke-width:0.2149;stroke-miterlimit:10;"
					d="
				M81.6,195.9l40.9-23.5c4.3-2.4,4.3-8.6,0-11l-40.9-23.5c-3.9-2.2-8.7-2.2-12.6,0l-40.9,23.5c-4.3,2.4-4.3,8.6,0,11L69,195.9
				C72.9,198.1,77.7,198.1,81.6,195.9z" />

				<linearGradient id="SVGID_00000103979865729389330860000016910399637952996508_"
					gradientUnits="userSpaceOnUse" x1="74.979" y1="165.8478" x2="74.979" y2="50.6898"
					gradientTransform="matrix(1 0 0 -1 0 265.8207)">
					<stop offset="0" style="stop-color:#77F8DC;stop-opacity:0" />
					<stop offset="0.2188" style="stop-color:#7CF8D4;stop-opacity:0.9" />
					<stop offset="0.4371" style="stop-color:#8CF9BF" />
					<stop offset="0.6395" style="stop-color:#A6FA9D" />
					<stop offset="0.8094" style="stop-color:#C9FC6E" />
					<stop offset="1" style="stop-color:#F0FE3B" />
				</linearGradient>

				<path
					style="opacity:0.25;fill:url(#SVGID_00000103979865729389330860000016910399637952996508_);enable-background:new    ;"
					d="
				M132.5,154l-0.4-91.4H17.4l0.5,91.2c0,3.4,0.3,5,3.6,6.7L67.9,188c0,0,7.1,4,14.6,0.1l47.6-28.6C130.1,159.5,133,158,132.5,154z" />
			</g>
			<g>
				<g>
					<path class="st6" d="M20.7,156.4l47.4,27.5c0,0,7.1,3.9,14.6,0l47.6-28.3c0,0,6.3-3.6-0.8-7.4l-49-28c0,0-4.6-3.1-10.7,0.6
					l-48.5,28C21.3,148.9,13.5,152.6,20.7,156.4z" />
				</g>
				<g>
					<path class="st7" d="M20.7,146.4l47.4,27.5c0,0,7.1,3.9,14.6,0l47.6-28.3c0,0,6.3-3.6-0.8-7.4l-49-28c0,0-4.6-3.1-10.7,0.6
					l-48.5,28C21.3,138.9,13.5,142.6,20.7,146.4z" />
				</g>
				<g>
					<path class="st8" d="M20.7,148.4l47.4,27.5c0,0,7.1,3.9,14.6,0l47.6-28.3c0,0,6.3-3.6-0.8-7.4l-49-28c0,0-4.6-3.1-10.7,0.6
					l-48.5,28C21.3,140.9,13.5,144.6,20.7,148.4z" />
				</g>
				<g>
					<g>
						<g>
							<path class="st9" d="M83.6,108.4c0.5,1.2,1.1,2.4,1.6,3.5c2.9,6.3,5.7,12.3,6.4,19.1c1,8.7-1.7,12.8-7.2,11
							c-1.1-0.4-2.2-0.9-3.3-1.6c-0.3-0.2-0.6-0.3-0.9-0.5s-0.6-0.3-0.9-0.5c-2.1-1.2-4.3-2.5-6.4-3.7c-2.2-1.3-4.5-2.6-6.8-3.9
							c-1.7-1-3.4-1.9-5-2.9C65.8,124.5,79.7,111.8,83.6,108.4z" />
							<path class="st10" d="M83.2,106L83.2,106c0.1,0,0.1,0,0.2,0l0,0c0.1,0,0.2,0.1,0.2,0.1l2.1-1.2l0,0l0,0l0,0l0,0l0,0l0,0l0,0
							l0,0l0,0l0,0l0,0l0,0l0,0l0,0c0,0,0,0-0.1,0c0,0,0,0-0.1,0c0,0,0,0-0.1,0l0,0l0,0h-0.1h-0.1L83.2,106
							C83.2,106.1,83.2,106,83.2,106L83.2,106C83.1,106,83.1,106,83.2,106z" />
							<path class="st11" d="M95.6,133.9c0-0.1,0-0.2,0-0.3c0-0.2,0-0.3,0-0.5c0-0.3,0-0.6,0-1l0,0l0,0c0-0.4-0.1-0.7-0.1-1.1
							c0-0.2,0-0.4-0.1-0.6c0-0.2,0-0.3-0.1-0.5c0-0.4-0.1-0.7-0.2-1.1c-0.1-0.3-0.1-0.7-0.2-1c0,0,0,0,0-0.1c0,0,0,0,0-0.1
							c-0.1-0.4-0.2-0.8-0.2-1.2c-0.1-0.4-0.2-0.8-0.3-1.3V125c0-0.1,0-0.1,0-0.2c-0.1-0.4-0.2-0.8-0.3-1.1
							c-0.1-0.4-0.2-0.8-0.3-1.1c0-0.1-0.1-0.2-0.1-0.3v-0.1c-0.2-0.6-0.4-1.2-0.6-1.8c0-0.1-0.1-0.2-0.1-0.3
							c-0.1-0.4-0.3-0.8-0.4-1.2c-0.1-0.3-0.2-0.7-0.4-1c0-0.1-0.1-0.2-0.1-0.3c-0.1-0.3-0.3-0.6-0.4-0.9c-0.2-0.5-0.4-0.9-0.6-1.4
							c-0.1-0.3-0.3-0.7-0.4-1c-0.1-0.2-0.2-0.5-0.3-0.7c-0.1-0.2-0.2-0.4-0.2-0.5c-0.4-1-0.9-1.9-1.3-2.9c-0.5-1-0.9-2-1.4-3
							c-0.2-0.4-0.4-0.8-0.6-1.2l0,0c0-0.1,0-0.1-0.1-0.2c0,0,0,0,0-0.1c-0.1-0.2-0.2-0.3-0.3-0.4l0,0l0,0l0,0l-0.1-0.1l-0.1-0.1
							c0,0,0,0-0.1-0.1l0,0l0,0l0,0c0,0,0,0-0.1-0.1c0,0,0,0-0.1,0c0,0,0,0-0.1,0c0,0,0,0-0.1,0l0,0l-2.1,1.2
							c0.1,0.1,0.2,0.1,0.3,0.2l0,0c0.1,0.1,0.2,0.2,0.3,0.3l0,0l0,0c0.1,0.1,0.2,0.3,0.3,0.4c0,0.1,0.1,0.1,0.1,0.2
							c0.1,0.2,0.2,0.5,0.3,0.7c0.1,0.2,0.2,0.3,0.2,0.5c0.5,1,0.9,2,1.4,3c0.4,1,0.9,1.9,1.3,2.9c0.2,0.4,0.4,0.8,0.5,1.2
							c0.1,0.3,0.3,0.7,0.4,1c0.2,0.5,0.4,0.9,0.6,1.4c0.1,0.3,0.3,0.6,0.4,0.9c0.2,0.4,0.3,0.9,0.5,1.3c0.1,0.4,0.3,0.8,0.4,1.2
							c0.3,0.7,0.5,1.5,0.8,2.2c0,0.1,0.1,0.2,0.1,0.3c0.2,0.8,0.5,1.5,0.6,2.3v0.1c0.2,0.8,0.4,1.7,0.6,2.6c0,0,0,0,0,0.1
							c0.2,0.9,0.3,1.8,0.4,2.6c0.1,0.6,0.1,1.2,0.2,1.7l0,0c0,0.5,0,1,0.1,1.4c0,0.1,0,0.2,0,0.3c0,0.4,0,0.9,0,1.3
							c0,0.1,0,0.2,0,0.2c0,0.4-0.1,0.8-0.1,1.2v0.1c-0.1,0.4-0.1,0.7-0.2,1.1v0.1c-0.1,0.3-0.2,0.7-0.3,1c0,0.1,0,0.1-0.1,0.2
							c-0.1,0.3-0.2,0.6-0.3,0.8v0.1c-0.1,0.3-0.3,0.6-0.5,0.9c-0.5,0.7-1.1,1.3-1.7,1.7l2.1-1.2c0.7-0.4,1.2-1,1.7-1.7
							c0,0,0-0.1,0.1-0.1c0.2-0.2,0.3-0.5,0.4-0.8l0,0v-0.1c0.1-0.2,0.2-0.4,0.2-0.6c0-0.1,0.1-0.2,0.1-0.2c0-0.1,0-0.1,0.1-0.2
							c0-0.1,0.1-0.1,0.1-0.2c0.1-0.2,0.1-0.5,0.2-0.7c0,0,0,0,0-0.1v-0.1c0-0.2,0.1-0.3,0.1-0.5s0.1-0.4,0.1-0.6v-0.1
							c0,0,0,0,0-0.1c0-0.3,0.1-0.5,0.1-0.8c0-0.1,0-0.3,0-0.4c0-0.1,0-0.2,0-0.2c0-0.1,0-0.1,0-0.2
							C95.6,134.4,95.6,134.1,95.6,133.9C95.6,134.1,95.6,134,95.6,133.9z" />
							<path class="st12" d="M93.3,131.7c0.5,4.7,0.1,8.4-1.4,10.6c-1.5,2.3-3.9,2.9-7.1,1.9c-1.2-0.4-2.5-1.1-3.7-1.8
							c-0.3-0.2-0.6-0.3-0.9-0.5s-0.6-0.3-0.9-0.5c-2.1-1.2-4.3-2.5-6.4-3.7c-2.2-1.3-4.5-2.6-6.7-3.9c-2.1-1.3-4.2-2.5-6.2-3.7
							c-0.4-0.2-0.8-0.7-0.9-1.2c-0.2-0.6-0.1-1.1,0.1-1.4c4.2-3.9,20.2-18.5,23.6-21.4c0.2-0.2,0.6-0.2,0.9,0
							c0.4,0.3,0.8,0.7,1,1.2c0.6,1.4,1.3,2.9,1.9,4.3C89.5,117.9,92.5,124.4,93.3,131.7z M84.4,142c5.5,1.8,8.2-2.3,7.2-11
							c-0.8-6.8-3.5-12.8-6.4-19.1c-0.5-1.1-1.1-2.3-1.6-3.5c-3.9,3.4-17.8,16.1-22.5,20.5c1.7,1,3.4,2,5,2.9
							c2.3,1.3,4.6,2.6,6.8,3.9c2.1,1.2,4.3,2.4,6.4,3.7c0.3,0.2,0.6,0.4,0.9,0.5c0.3,0.2,0.6,0.3,0.9,0.5
							C82.3,141.1,83.4,141.7,84.4,142" />
						</g>
						<g>
							<path class="st12" d="M91.1,94.3c0.2,0.6,0.1,1.1-0.1,1.4c-4.2,3.9-20.2,18.5-23.6,21.4c-0.2,0.2-0.6,0.2-0.9,0
							c-0.4-0.3-0.8-0.7-1-1.2c-0.6-1.4-1.3-2.9-1.9-4.3c-2.9-6.3-5.9-12.9-6.7-20.1c-0.5-4.7-0.1-8.4,1.4-10.6
							c1.5-2.3,3.9-2.9,7.1-1.9c1.2,0.4,2.5,1.1,3.7,1.8c0.3,0.2,0.6,0.3,0.9,0.5c0.3,0.2,0.5,0.3,0.8,0.5c0,0,0.1,0,0.1,0.1
							c2.1,1.2,4.3,2.5,6.4,3.7c2.2,1.3,4.5,2.6,6.8,3.9c2.1,1.2,4.1,2.4,6.2,3.6C90.6,93.3,91,93.7,91.1,94.3z M66.5,114.8
							c3.9-3.4,17.8-16.1,22.5-20.5c-1.7-1-3.4-2-5-2.9c-2.3-1.3-4.6-2.6-6.8-3.9c-2.1-1.2-4.3-2.4-6.4-3.7c-0.1,0-0.1-0.1-0.2-0.1
							c-0.2-0.1-0.5-0.3-0.7-0.4c-0.3-0.2-0.6-0.4-0.9-0.5c-1.1-0.7-2.2-1.2-3.3-1.6c-5.5-1.8-8.2,2.3-7.2,11
							c0.8,6.8,3.5,12.8,6.4,19.1C65.5,112.4,66,113.6,66.5,114.8" />
							<path class="st13" d="M93.3,93.7C93.3,93.7,93.3,93.6,93.3,93.7C93.3,93.6,93.3,93.6,93.3,93.7c0-0.1,0-0.1,0-0.2l0,0l0,0l0,0
							c0,0,0,0,0-0.1c0,0,0,0,0-0.1c0,0,0,0,0-0.1c0,0,0,0,0-0.1c0,0,0,0,0-0.1c0,0,0,0,0-0.1l-2.1,1.2c0,0.1,0.1,0.3,0.1,0.4l0,0
							c0,0.1,0,0.3,0,0.4l0,0c0,0.1,0,0.2-0.1,0.3l0,0c0,0.1-0.1,0.2-0.2,0.2c-4.2,3.9-20.2,18.5-23.6,21.4c0,0-0.1,0-0.1,0.1
							l2.1-1.2c0,0,0.1,0,0.1-0.1c3.4-2.9,19.4-17.6,23.6-21.4l0.1-0.1V94l0,0l0,0l0,0c0,0,0,0,0-0.1c0,0,0,0,0-0.1
							C93.2,93.8,93.2,93.8,93.3,93.7C93.2,93.7,93.2,93.7,93.3,93.7L93.3,93.7L93.3,93.7L93.3,93.7c-0.1-0.1-0.1-0.1-0.1-0.2
							C93.3,93.8,93.3,93.8,93.3,93.7L93.3,93.7z" />
							<path class="st10" d="M90.7,93.5c0.1,0.1,0.2,0.3,0.3,0.4c0.1,0.1,0.1,0.2,0.2,0.4l2.1-1.2l0,0V93v-0.1c0,0,0-0.1-0.1-0.1l0,0
							c-0.1-0.1-0.2-0.3-0.3-0.4l0,0l-0.1-0.1c0,0,0,0-0.1-0.1c0,0,0,0-0.1,0l0,0l0,0c0,0,0,0-0.1,0l0,0l0,0l0,0l0,0l0,0l0,0
							c-2.1-1.2-4.3-2.4-6.4-3.6c-2.3-1.3-4.6-2.6-6.8-3.9c-2.1-1.2-6.2-3.6-6.2-3.6l-0.4-0.2c0,0-0.2-0.3-0.5-0.5
							c-0.3-0.2-0.6-0.3-0.9-0.5c-0.3-0.2-0.6-0.4-1-0.5c0,0,0,0-0.1,0c-0.2-0.1-0.5-0.3-0.7-0.4h-0.1l0,0c-0.2-0.1-0.4-0.2-0.6-0.3
							c-0.1,0-0.1-0.1-0.2-0.1s-0.1,0-0.2-0.1c-0.1,0-0.1-0.1-0.2-0.1c-0.2-0.1-0.3-0.1-0.5-0.2c-0.1,0-0.1,0-0.2-0.1
							c-0.1,0-0.2-0.1-0.3-0.1c-0.2-0.1-0.3-0.1-0.5-0.1l0,0l0,0c-0.2,0-0.3-0.1-0.5-0.1c-0.1,0-0.1,0-0.2,0s-0.1,0-0.2,0
							s-0.1,0-0.2,0c-0.2,0-0.3,0-0.5-0.1l0,0l0,0c-0.2,0-0.3,0-0.5,0h-0.1c-0.1,0-0.1,0-0.2,0s-0.1,0-0.2,0s-0.1,0-0.2,0
							c-0.1,0-0.2,0-0.3,0h-0.1c-0.1,0-0.1,0-0.2,0c-0.1,0-0.3,0.1-0.4,0.1h-0.1h-0.1c-0.3,0.1-0.5,0.2-0.7,0.3l-2,1.1
							c0.2-0.1,0.5-0.2,0.7-0.3c0.1,0,0.2-0.1,0.2-0.1c0.1,0,0.3-0.1,0.4-0.1c0.1,0,0.2,0,0.3-0.1c0.1,0,0.2,0,0.3,0s0.3,0,0.4,0
							c0.1,0,0.1,0,0.2,0c0.2,0,0.4,0,0.6,0l0,0c0.2,0,0.4,0,0.7,0.1c0.1,0,0.1,0,0.2,0c0.2,0,0.4,0.1,0.7,0.1l0,0
							c0.3,0.1,0.5,0.1,0.8,0.2c0.3,0.1,0.6,0.2,0.9,0.3c0.1,0,0.1,0,0.2,0.1c0.3,0.1,0.6,0.2,0.8,0.4h0.1c0.3,0.1,0.5,0.3,0.8,0.4
							c0.3,0.2,0.6,0.4,1,0.5c0.3,0.2,0.6,0.3,0.9,0.5c0,0,0,0,0.1,0c0.1,0.1,0.2,0.1,0.3,0.2c0.2,0.1,0.2,0.3,0.2,0.3l0.4,0.2
							c0,0,4.1,2.4,6.2,3.6c2.2,1.3,4.5,2.6,6.8,3.9c2.1,1.2,3.1,1.8,5.2,3c0.1,0.1,0.2,0.1,0.3,0.2C89.7,92.6,90.6,93.4,90.7,93.5z
							" />
							<path class="st9" d="M84,91.4c1.7,1,3.4,1.9,5,2.9c-4.7,4.4-18.7,17.1-22.5,20.5c-0.5-1.2-1.1-2.4-1.6-3.5
							c-2.9-6.4-5.6-12.4-6.4-19.2c-1-8.7,1.7-12.8,7.2-11c1.1,0.4,2.2,0.9,3.3,1.6c0.3,0.2,0.6,0.3,0.9,0.5
							c0.2,0.1,0.5,0.3,0.7,0.4c0.1,0,0.1,0.1,0.2,0.1c2.1,1.2,4.3,2.5,6.4,3.7C79.5,88.7,81.8,90,84,91.4z" />
						</g>
						<g>

							<linearGradient id="SVGID_00000181797014888394786430000005057753023896257429_"
								gradientUnits="userSpaceOnUse" x1="47.85" y1="142.7596" x2="47.85" y2="149.7199"
								gradientTransform="matrix(1 0 0 -1 0 265.8207)">
								<stop offset="0" style="stop-color:#D4ED09" />
								<stop offset="1" style="stop-color:#C3D62B" />
							</linearGradient>

							<path
								style="fill:url(#SVGID_00000181797014888394786430000005057753023896257429_);stroke:#C3D62B;stroke-width:0.25;stroke-linecap:round;stroke-linejoin:round;stroke-miterlimit:10;"
								d="
							M49.2,121.3L49.2,121.3c-0.1-0.3-0.2-0.5-0.2-0.7v-0.1c-0.1-0.2-0.1-0.4-0.2-0.6l0,0c-0.1-0.2-0.1-0.4-0.2-0.7v-0.1
							c0-0.2-0.1-0.4-0.1-0.6v-0.1c0-0.2-0.1-0.4-0.1-0.6v-0.1c0-0.2,0-0.4-0.1-0.6c0,0,0,0,0-0.1c0-0.2,0-0.4,0-0.7l-2.1,1.2
							c0,0.1,0,0.2,0,0.4c0,0.1,0,0.2,0,0.3c0,0,0,0,0,0.1l0,0c0,0.1,0,0.3,0,0.4s0,0.1,0,0.2v0.1v0.1c0,0.1,0,0.3,0.1,0.4
							c0,0.1,0,0.1,0,0.2v0.1v0.1c0,0.1,0.1,0.3,0.1,0.4v0.1v0.1c0,0.1,0,0.1,0.1,0.2c0,0.1,0.1,0.3,0.1,0.4l0,0l0,0
							c0,0.1,0.1,0.3,0.1,0.4s0,0.1,0.1,0.2c0,0,0,0.1,0.1,0.1v0.1c0.1,0.2,0.1,0.3,0.2,0.5l0,0v0.1c0.1,0.1,0.1,0.3,0.2,0.4
							c0,0.1,0.1,0.1,0.1,0.2l2.1-1.2C49.4,121.7,49.3,121.5,49.2,121.3z" />
							<path class="st15"
								d="M96.1,159.6C96.1,159.7,96,159.7,96.1,159.6c-0.1,0-0.2,0.1-0.2,0.1h-0.1h-0.1h-0.1h-0.1c0,0,0,0-0.1,0
							s-0.1,0-0.2,0c0,0,0,0-0.1,0s-0.1,0-0.2,0l0,0c-0.1,0-0.1,0-0.2,0s-0.1,0-0.2,0l0,0c-0.1,0-0.1,0-0.2,0c0,0,0,0-0.1,0h-0.1
							c0,0,0,0-0.1,0h-0.1c0,0,0,0-0.1,0c0,0-0.1,0-0.1-0.1l0,0c-0.1,0-0.1-0.1-0.2-0.1l0,0c-0.1,0-0.1,0-0.2-0.1c0,0,0,0-0.1,0
							s-0.1-0.1-0.2-0.1l-33.8-19.5c-0.1,0-0.2-0.1-0.2-0.1s0,0-0.1,0s-0.1-0.1-0.2-0.1l0,0c-0.1-0.1-0.2-0.1-0.2-0.2
							c0,0,0,0-0.1-0.1c-0.1,0-0.1-0.1-0.2-0.1l-0.1-0.1L58,139l-0.1-0.1l-0.1-0.1c-0.1-0.1-0.1-0.1-0.2-0.2l-0.1-0.1
							c-0.1-0.1-0.2-0.2-0.3-0.4l0,0c-0.1-0.1-0.2-0.3-0.3-0.4c0,0,0-0.1-0.1-0.1c-0.1-0.2-0.2-0.3-0.3-0.5c0,0,0-0.1-0.1-0.1
							c-0.1-0.2-0.2-0.3-0.3-0.5l0,0c-0.1-0.2-0.2-0.4-0.3-0.5c0,0,0-0.1-0.1-0.1c-0.1-0.2-0.2-0.4-0.2-0.5L49.3,122l-1.9,1.1
							l6.2,13.4l0,0l0,0l0,0c0.1,0.2,0.2,0.3,0.2,0.5c0,0,0,0,0,0.1c0,0,0,0,0,0.1c0.1,0.2,0.2,0.4,0.3,0.5l0,0
							c0.1,0.2,0.2,0.3,0.3,0.5c0,0,0,0.1,0.1,0.1c0.1,0.2,0.2,0.3,0.3,0.5c0,0,0,0.1,0.1,0.1c0.1,0.2,0.2,0.3,0.3,0.4l0,0l0,0
							c0.1,0.1,0.2,0.2,0.3,0.4l0,0l0,0c0.1,0.1,0.1,0.1,0.2,0.2c0,0,0,0.1,0.1,0.1l0,0l0.1,0.1l0.1,0.1c0,0,0,0,0.1,0l0.1,0.1
							c0,0,0,0,0.1,0.1l0.1,0.1c0,0,0,0,0.1,0.1l0,0c0.1,0,0.1,0.1,0.2,0.1l0,0l0,0l0.1,0.1c0,0,0,0,0.1,0c0,0,0,0,0.1,0l0,0
							c0.1,0,0.1,0.1,0.2,0.1l0,0L91,160.4c0,0,0.1,0,0.1,0.1c0,0,0,0,0.1,0c0,0,0,0,0.1,0l0,0c0,0,0.1,0,0.1,0.1l0,0l0,0
							c0.1,0,0.1,0,0.2,0.1l0,0l0,0h0.1l0,0c0,0,0,0,0.1,0c0,0,0,0,0.1,0c0,0,0,0,0.1,0c0,0,0,0,0.1,0l0,0h0.1c0,0,0,0,0.1,0l0,0
							c0.1,0,0.1,0,0.2,0l0,0l0,0c0.1,0,0.1,0,0.2,0l0,0c0.1,0,0.1,0,0.2,0l0,0l0,0c0.1,0,0.1,0,0.2,0l0,0l0,0c0.1,0,0.1,0,0.2,0
							l0,0l0,0h0.1h0.1h0.1l0,0l0,0c0,0,0.1,0,0.1-0.1c0,0,0,0,0.1,0s0.1-0.1,0.2-0.1l2.1-1.2C96.2,159.6,96.1,159.6,96.1,159.6z" />
							<path class="st16" d="M46.2,71.1l-0.1,46.2l2.1-1.2l0.1-46.2l0,0c0-0.1,0-0.1,0-0.2s0-0.1,0-0.2v-0.1c0-0.1,0-0.2,0-0.2v-0.1
							c0-0.1,0-0.2,0-0.2v-0.1c0-0.1,0-0.2,0-0.2v-0.1c0-0.1,0-0.2,0-0.2v-0.1c0-0.1,0-0.2,0.1-0.3c0,0,0,0,0-0.1
							c0-0.1,0.1-0.2,0.1-0.4v-0.1c0-0.1,0.1-0.2,0.2-0.4l0,0c0,0,0-0.1,0.1-0.1c0,0,0-0.1,0.1-0.1c0,0,0-0.1,0.1-0.1
							c0,0,0-0.1,0.1-0.1l0.1-0.1c0,0,0-0.1,0.1-0.1l0.1-0.1c0,0,0-0.1,0.1-0.1l0.1-0.1c0,0,0,0,0.1-0.1s0.1-0.1,0.2-0.2l6.1-5.1
							l-2.1,1.2l-6.1,5.1c-0.1,0.1-0.1,0.1-0.2,0.2c0,0,0,0-0.1,0.1l-0.1,0.1c0,0,0,0.1-0.1,0.1l-0.1,0.1c0,0,0,0.1-0.1,0.1L47,67.7
							l0,0c0,0,0,0.1-0.1,0.1c0,0,0,0.1-0.1,0.1c0,0,0,0.1-0.1,0.1c0,0,0,0.1-0.1,0.1l0,0l0,0c-0.1,0.1-0.1,0.2-0.2,0.4l0,0l0,0
							c0,0.1-0.1,0.2-0.1,0.4l0,0c0,0,0,0,0,0.1s-0.1,0.2-0.1,0.3l0,0v0.1c0,0.1,0,0.2,0,0.2v0.1c0,0,0,0,0,0.1s0,0.2,0,0.2v0.1l0,0
							c0,0.1,0,0.2,0,0.2v0.1l0,0c0,0.1,0,0.2,0,0.2v0.1l0,0c0,0.1,0,0.1,0,0.2C46.2,71,46.2,71,46.2,71.1L46.2,71.1" />
							<path class="st12" d="M102.3,98.7c1.1,2.3,1.6,4.8,1.6,7.1l-0.1,46.2c0,2.4-0.7,4.3-1.9,5.4l-6.1,5.1c-1.3,1-3,1.1-4.8,0
							L57.2,143c-1.9-1.1-3.8-3.3-5-6.1L46,123.5c-1.1-2.3-1.6-4.8-1.6-7.1l0.1-46.2c0-2.4,0.7-4.3,1.9-5.4l6.1-5.1
							c1.3-1,3-1.1,4.8,0l33.8,19.5c1.9,1.1,3.8,3.3,5,6.1L102.3,98.7z M102.2,151l0.1-46.2c0-1.8-0.5-3.9-1.3-5.8l-6.2-13.4
							c-0.9-2.1-2.3-3.7-3.7-4.5L57.3,61.6c-1.3-0.8-2.6-0.7-3.5,0.1l-6.1,5.1c-1,0.8-1.5,2.4-1.5,4.4l-0.1,46.2
							c0,1.8,0.5,3.9,1.3,5.8l6.2,13.4c0.9,2.1,2.3,3.7,3.7,4.5l33.8,19.5c1.3,0.8,2.6,0.7,3.5-0.1l6.1-5.1
							C101.6,154.6,102.2,153,102.2,151" />
							<polygon class="st17" points="104,105.8 106,104.6 105.9,150.8 103.8,152 						" />

							<linearGradient id="SVGID_00000104674704424907781020000012312961381670959532_"
								gradientUnits="userSpaceOnUse" x1="103.613" y1="164.9423" x2="105.7742" y2="161.9251"
								gradientTransform="matrix(1 0 0 -1 0 265.8207)">
								<stop offset="0" style="stop-color:#D4ED09" />
								<stop offset="1" style="stop-color:#C3D62B" />
							</linearGradient>

							<path id="SVGID_00000025437954619116363210000001950747827374873233_"
								style="fill:url(#SVGID_00000104674704424907781020000012312961381670959532_);" d="
							M102.3,98.7l2.1-1.2c1.1,2.3,1.6,4.8,1.6,7.1l-2.1,1.2C104,103.5,103.4,101,102.3,98.7z" />
							<path id="SVGID_00000034790420404457128850000011823789758522800798_" class="st19" d="M102.3,98.7l2.1-1.2
							c1.1,2.3,1.6,4.8,1.6,7.1l-2.1,1.2C104,103.5,103.4,101,102.3,98.7z" />
							<path class="st15" d="M98,84.2c-0.1-0.2-0.2-0.6-0.3-0.8c0,0,0-0.1-0.1-0.1c-0.2-0.5-0.4-0.9-0.7-1.3
							c-0.1-0.1-0.1-0.4-0.2-0.4c-0.3-0.4-0.5-0.7-0.7-1.1c0,0,0,0,0-0.1l0,0l-0.1-0.1c-0.1-0.1-0.2-0.3-0.4-0.4
							c0-0.1-0.1-0.1-0.1-0.2l-0.1-0.1l-0.1-0.1c-0.1-0.1-0.2-0.2-0.3-0.3l-0.1-0.1c0,0,0,0-0.1-0.1L94.6,79
							c-0.1-0.1-0.2-0.2-0.3-0.2c-0.1-0.1-0.2-0.1-0.3-0.2l0,0l0,0c-0.1,0-0.1-0.1-0.2-0.1c-0.1-0.1-0.2-0.1-0.2-0.2
							c-0.1,0-0.2-0.1-0.2-0.1s0,0-0.1,0L59.4,58.5l0,0c-0.1,0-0.1-0.1-0.2-0.1h-0.1H59c0,0,0,0-0.1,0s-0.1,0-0.2-0.1c0,0,0,0-0.1,0
							l0,0c-0.1,0-0.1-0.1-0.2-0.1l0,0c0,0,0,0-0.1,0c0,0-0.1,0-0.1-0.1c-0.1,0-0.4-0.1-1.3-0.1s-1.4,0.1-1.5,0.1l0,0
							c-0.1,0-0.1,0-0.2,0.1h-0.1c-0.1,0-0.2,0.1-0.3,0.1L53,59.4c0.1,0,0.2-0.1,0.3-0.1h0.1c0.1,0,0.1-0.1,0.2-0.1h0.1h0.1h0.1H54
							h0.1c0.1,0,0.2,0,0.3,0h0.1c0.1,0,0.2,0,0.2,0s0,0,0.1,0s0.1,0,0.2,0c0,0,0,0,0.1,0h0.1c0.1,0,0.1,0,0.2,0c0,0,0,0,0.1,0
							s0.1,0,0.2,0h0.1c0.1,0,0.1,0,0.2,0h0.1c0.1,0,0.1,0,0.2,0.1h0.1c0.1,0,0.1,0,0.2,0.1c0,0,0,0,0.1,0s0.2,0.1,0.3,0.1
							c0,0,0,0,0.1,0s0.1,0.1,0.2,0.1h0.1c0.1,0,0.2,0.1,0.2,0.1l33.8,19.5c0.2,0.1,0.5,0.3,0.7,0.5l0,0c0.2,0.2,0.4,0.3,0.7,0.5
							c0,0,0,0,0.1,0.1c0.2,0.2,0.4,0.4,0.6,0.6l0.1,0.1c0.2,0.2,0.4,0.4,0.5,0.6l0.1,0.1c0,0,0,0.1,0.1,0.1
							c0.3,0.4,0.5,0.7,0.7,1.1c0.1,0.1,0.1,0.4,0.2,0.4c0.3,0.4,0.4,0.9,0.7,1.3c0.1,0.3,0.3,0.6,0.4,0.9l6.1,13.3l2.1-1.2L98,84.2
							z" />
							<g class="st20">
								<g>
									<defs>
										<path id="SVGID_00000007386117504176124680000014459000558128114877_" d="M54.2,61.4l2.1-1.2c-0.1,0.1-0.3,0.2-0.4,0.3
										l-2.1,1.2C53.9,61.6,54.1,61.5,54.2,61.4z" />
									</defs>
									<clipPath id="SVGID_00000075871220762415960890000008997048889740431504_">
										<use xlink:href="#SVGID_00000007386117504176124680000014459000558128114877_"
											style="overflow:visible;" />
									</clipPath>
									<g
										style="clip-path:url(#SVGID_00000075871220762415960890000008997048889740431504_);enable-background:new    ;">
										<path class="st22"
											d="M54.2,61.4l2.1-1.2c-0.1,0.1-0.3,0.2-0.4,0.3l-2.1,1.2C53.9,61.6,54.1,61.5,54.2,61.4" />
									</g>
								</g>
							</g>
							<path class="st17" d="M103.8,152c0,0.1,0,0.1,0,0.2c0,0.1,0,0.2,0,0.3s0,0.1,0,0.2c0,0.1,0,0.2,0,0.3s0,0.1,0,0.2
							c0,0.1,0,0.2,0,0.3s0,0.1,0,0.2c0,0.1,0,0.2,0,0.3s0,0.1,0,0.2c0,0.1,0,0.2-0.1,0.3c0,0.1,0,0.1,0,0.2c0,0.1-0.1,0.2-0.1,0.3
							v0.1c0,0.1-0.1,0.3-0.1,0.4v0.1c-0.1,0.1-0.1,0.3-0.2,0.4v0.1c0,0,0,0.1-0.1,0.1c0,0.1-0.1,0.1-0.1,0.2l-0.1,0.1l-0.1,0.1
							c0,0.1-0.1,0.1-0.1,0.2l-0.1,0.1c0,0.1-0.1,0.1-0.1,0.2l-0.1,0.1c0,0.1-0.1,0.1-0.1,0.2c0,0,0,0.1-0.1,0.1
							c-0.1,0.1-0.2,0.1-0.2,0.2l-6.1,5.1c-0.2,0.1-0.3,0.2-0.5,0.3l0,0l0,0l2.1-1.2c0.2-0.1,0.3-0.2,0.5-0.3l6.1-5.1
							c0.1-0.1,0.2-0.1,0.2-0.2c0,0,0-0.1,0.1-0.1c0-0.1,0.1-0.1,0.1-0.2l0.1-0.1c0,0,0.1-0.1,0.1-0.2l0.1-0.1
							c0-0.1,0.1-0.1,0.1-0.2l0,0c0,0,0-0.1,0.1-0.1l0.1-0.1c0-0.1,0.1-0.1,0.1-0.2c0,0,0-0.1,0.1-0.1l0,0c0,0,0,0,0-0.1
							c0.1-0.1,0.1-0.3,0.2-0.4c0,0,0,0,0-0.1l0,0c0.1-0.1,0.1-0.3,0.1-0.4l0,0v-0.1c0-0.1,0.1-0.2,0.1-0.3c0,0,0,0,0-0.1v-0.1
							c0-0.1,0-0.2,0.1-0.3v-0.1c0,0,0,0,0-0.1c0-0.1,0-0.2,0-0.3v-0.1l0,0c0-0.1,0-0.2,0-0.3V152l0,0c0-0.1,0-0.2,0-0.3
							c0-0.1,0-0.1,0-0.2l0,0c0-0.1,0-0.2,0-0.3c0-0.1,0-0.1,0-0.2l0,0L103.8,152z" />
						</g>
					</g>
				</g>
			</g>
			<g>
				<circle class="st12" cx="73.8" cy="117.4" r="1.5" />
				<circle class="st12" cx="38.8" cy="60.4" r="0.5" />
				<circle class="st23" cx="120.5" cy="132" r="0.7" />
				<circle class="st9" cx="102.1" cy="63.1" r="0.7" />
				<circle class="st23" cx="84.8" cy="106.4" r="0.7" />
				<circle class="st23" cx="123.2" cy="147.1" r="0.7" />
				<circle class="st23" cx="117" cy="88.7" r="0.7" />
				<circle class="st12" cx="97" cy="92.2" r="0.7" />
				<circle class="st23" cx="93.6" cy="141.2" r="0.7" />
				<circle class="st23" cx="29.7" cy="123.6" r="0.7" />
				<circle class="st23" cx="52.8" cy="116.4" r="0.7" />
				<circle class="st9" cx="124.5" cy="110.5" r="1.4" />
				<circle class="st23" cx="42.1" cy="93.6" r="0.7" />
				<circle class="st9" cx="27.2" cy="74.6" r="0.7" />
				<circle class="st9" cx="33.3" cy="114.1" r="0.7" />
				<circle class="st9" cx="75.1" cy="66" r="1" />
				<circle class="st23" cx="59.6" cy="94.3" r="1.4" />
				<circle class="st23" cx="28.4" cy="144.5" r="1.4" />
				<circle class="st23" cx="110.7" cy="123.6" r="1.4" />
			</g>
		</g>
	</g>
</svg>