<?xml version="1.0" encoding="utf-8"?>
<!-- Generator: Adobe Illustrator 26.3.1, SVG Export Plug-In . SVG Version: 6.00 Build 0)  -->
<svg version="1.1" id="coin-flip" xmlns="http://www.w3.org/2000/svg" xmlns:xlink="http://www.w3.org/1999/xlink" x="0px" y="0px"
	 viewBox="0 0 200 200" style="enable-background:new 0 0 200 200;" xml:space="preserve">
<style type="text/css">
	.st0{fill:none;}
	.st1{fill:#F8B26A;}
	.st2{fill:#F5E6C8;}
	.st3{opacity:0.6;fill:#F5E169;enable-background:new    ;}
</style>
<path class="st0" d="z"/>
<g>
	<g>
		<g>
			<g>
				<circle class="st1" cx="100" cy="100" r="80"/>
			</g>
		</g>
		<g>
			<g>
				<circle class="st2" cx="100" cy="100" r="65"/>
			</g>
		</g>
		<g>
			<g>
				<g>
					<g>
						<g>
							<path class="st1" d="M129.6,62.3c-13.4-7.2-24.5,0-27.9,6.5c-3,5.6-2.6,12.8-1.4,18.4c-19.7,2.8-35.5,6.6-38.4,19.2
								c-5.6,24.2,14.5,33.5,14.5,33.5c14.7,7.7,28.1,2.3,35-4c2-1.8,3.5-3.8,4.6-5.9c3-5.3,4-11.4,3.2-17.4
								c-0.7-5.4-3.1-12.4-7.6-22.3c-0.5-1.1-0.9-2.1-1.3-3.1c13.4-1,20.8-0.6,26.5-8.8C138.9,75.5,140,67.8,129.6,62.3L129.6,62.3z
								 M104.3,126c-7.2,8.8-20.1,4.1-23.1,2.4c-0.5-0.3-1-0.5-1.5-0.8c-2.8-1.3-11-9-6.5-20.9c3.5-9.3,19.2-15.9,27.9-17.7
								c1.5,5.1,4.3,10.9,5.7,15.2C111.4,118.8,104.3,126,104.3,126L104.3,126z M109.3,85c0-14.8,11.8-22.8,17.2-16.6
								C135.3,78.6,114.1,85.1,109.3,85z"/>
						</g>
					</g>
				</g>
			</g>
		</g>
		<g>
			<g>
				<path class="st3" d="M100,20c0.1,0,0.3,0,0.4,0v160c-0.1,0-0.3,0-0.4,0c-44.2,0-80-35.8-80-80S55.8,20,100,20L100,20z"/>
			</g>
		</g>
	</g>
</g>
<path class="st0" d="z"/>
</svg>
