<svg xml:space="preserve" viewBox="0 0 100 100" y="0" x="0" xmlns="http://www.w3.org/2000/svg" id="coin-flip" version="1.1" width="200px" height="200px" style="height: 100%; width: 100%; background-color: rgb(255, 255, 255);">
  <g class="ldl-scale" style="transform-origin: 50% 50%; transform: rotate(0deg) scale(0.8, 0.8);">
    <g class="ldl-ani" style="transform-origin: 50px 50px; transform: rotateY(0deg); animation: 1.111111s linear 0s infinite alternate forwards running coin-h-94262025-7f03-4f7c-b72c-bf29704c8c5c;">
      <g class="ldl-layer">
        <g class="ldl-ani" style="transform-origin: 50px 50px;">
          <circle fill="#f8b26a" r="40" cy="50" cx="50" style="fill: rgb(248, 178, 106);"></circle>
        </g>
      </g>
      <g class="ldl-layer">
        <g class="ldl-ani" style="transform-origin: 50px 50px;">
          <circle fill="#f5e6c8" r="32.5" cy="50" cx="50" style="fill: rgb(245, 230, 200);"></circle>
        </g>
      </g>
      <!-- <g class="ldl-layer">
        <g class="ldl-ani" style="transform-origin: 50px 50px;">
          <g>
            <g class="ldl-layer">
              <g class="ldl-ani" style="transform-origin: 50px 50px;">
                <path fill="#f8b26a" d="M49.803 70.797c-8.079 0-14.408-5.245-14.408-11.941h5.842c0 3.127 3.923 5.769 8.566 5.769 3.474 0 9.355-1.215 9.355-5.769 0-5.492-7.793-5.77-9.355-5.77C41.225 53.086 35 48.064 35 41.144c0-7.143 5.949-11.941 14.803-11.941 8.079 0 14.408 5.245 14.408 11.941h-5.842c0-3.127-3.923-5.769-8.566-5.769-4.134 0-8.961 1.511-8.961 5.769 0 3.788 4.508 5.77 8.961 5.77C59.035 46.914 65 51.602 65 58.856c0 7.143-6.107 11.941-15.197 11.941z" style="fill: rgb(248, 178, 106);"></path>
              </g>
            </g>
          </g>
        </g>
      </g> -->
      <g class="ldl-layer">
        <g class="ldl-ani" style="transform-origin: 50px 50px;">
          <g>
            <g class="ldl-layer">
              <g class="ldl-ani" style="transform-origin: 50px 50px;">
<path fill="#f8b26a" d="M129.6,62.3c-13.4-7.2-24.5,0-27.9,6.5c-3,5.6-2.6,12.8-1.4,18.4c-19.7,2.8-35.5,6.6-38.4,19.2
								c-5.6,24.2,14.5,33.5,14.5,33.5c14.7,7.7,28.1,2.3,35-4c2-1.8,3.5-3.8,4.6-5.9c3-5.3,4-11.4,3.2-17.4
								c-0.7-5.4-3.1-12.4-7.6-22.3c-0.5-1.1-0.9-2.1-1.3-3.1c13.4-1,20.8-0.6,26.5-8.8C138.9,75.5,140,67.8,129.6,62.3L129.6,62.3z
								 M104.3,126c-7.2,8.8-20.1,4.1-23.1,2.4c-0.5-0.3-1-0.5-1.5-0.8c-2.8-1.3-11-9-6.5-20.9c3.5-9.3,19.2-15.9,27.9-17.7
								c1.5,5.1,4.3,10.9,5.7,15.2C111.4,118.8,104.3,126,104.3,126L104.3,126z M109.3,85c0-14.8,11.8-22.8,17.2-16.6
								C135.3,78.6,114.1,85.1,109.3,85z"/>              </g>
            </g>
          </g>
        </g>
      </g>
      <g class="ldl-layer">
        <g class="ldl-ani" style="transform-origin: 50px 50px;">
          <path fill="#f5e169" opacity=".6" d="M50 10c.07 0 .139.005.208.005v79.99c-.069 0-.138.005-.208.005-22.091 0-40-17.909-40-40s17.909-40 40-40z" style="fill: rgb(245, 225, 105);"></path>
        </g>
      </g>
      <metadata xmlns:d="https://loading.io/stock/">
        <d:name>coin</d:name>
        <d:tags>coin,dollar,money,bucks,currency,price,value,quarter,penny,cent</d:tags>
        <d:license>by</d:license>
        <d:slug>wi8pt</d:slug>
      </metadata>
    </g>
  </g>
</svg>