<?xml version="1.0" encoding="utf-8"?>
<!-- Generator: Adobe Illustrator 26.3.1, SVG Export Plug-In . SVG Version: 6.00 Build 0)  -->
<svg version="1.1" id="Layer_1" xmlns="http://www.w3.org/2000/svg" xmlns:xlink="http://www.w3.org/1999/xlink" x="0px" y="0px"
	 viewBox="0 0 76.9 77.3" style="enable-background:new 0 0 76.9 77.3;" xml:space="preserve">
<style type="text/css">
	.st0{fill:#EFE4CE;}
	.st1{fill-rule:evenodd;clip-rule:evenodd;fill:url(#SVGID_1_);}
</style>
<circle class="st0" cx="38.4" cy="38.6" r="38.2"/>
<linearGradient id="SVGID_1_" gradientUnits="userSpaceOnUse" x1="38.3807" y1="809.4432" x2="38.3807" y2="747.6153" gradientTransform="matrix(1 0 0 1 0 -740)">
	<stop  offset="0" style="stop-color:#E33C3F"/>
	<stop  offset="1" style="stop-color:#8F305C"/>
</linearGradient>
<path class="st1" d="M38.3,69.4c9.2,0,17.3-4,23-10.3c-2.7-2.2-6.6-2.5-9.4-0.2l-0.4,0.4c-5.1,4.2-12.6,3.5-17-1.4
	c-2.4-2.7-6.5-3-9.2-0.6L19,62.6C24.3,66.9,31,69.4,38.3,69.4z M48.3,54.5c4.9-4,11.8-3.9,16.5,0c2.8-4.7,4.4-10.2,4.4-15.9
	c0-6.5-2-12.5-5.5-17.4c-2.2-0.4-4.6,0.1-6.4,1.7l-0.5,0.4c-4.9,4.4-12.4,4.1-17-0.6c-2.6-2.6-6.6-2.7-9.2-0.2l-7.2,6.7l-4-4.2
	l7.2-6.7c4.9-4.6,12.6-4.5,17.3,0.3c2.5,2.6,6.4,2.7,9.1,0.3l0.5-0.4c1.6-1.4,3.4-2.4,5.3-2.9c-5.5-4.9-12.6-7.9-20.6-7.9
	C22.7,7.6,9.7,19.3,7.7,34.5c4.8-2.2,10.6-1.4,14.5,2.6c2.5,2.5,6.4,2.8,9.2,0.6l4.1-3.1c5-4,12.2-3.7,17,0.4l7.8,6.8l-3.9,4.3
	l-7.8-6.8c-2.8-2.4-6.8-2.5-9.6-0.2L35,42.2c-5.1,4-12.4,3.5-16.9-1.1c-2.6-2.7-7-2.8-9.6-0.2l-0.9,0.7c0.6,6.4,3.3,12.3,7.3,17
	l6.6-5.7c5.1-4.4,12.8-3.9,17.3,1.2c2.4,2.7,6.3,3,9.1,0.7L48.3,54.5z"/>
</svg>
